<svg width="530" height="206" xmlns="http://www.w3.org/2000/svg"><g fill="#383838" fill-rule="nonzero"><path d="M64-1c1.696 5.653 8.736 8.863 12.96 12.834 4.758 4.474 7.864 10.952 9.897 17.166C89.626 37.468 88 48.193 88 57c0 4.873 1.141 10.215.687 15-.267 2.806-2.036 5.191-2.229 8-.408 5.955 1.86 12.824 1.962 19 .12 7.318-1.635 14.674-1.212 22 .806 13.954 4.075 31.969-3.856 44.715C69.893 187.343 43.338 183 22 183c-5.649 0-11.352-.23-16.995.019-2.129.094-5.294.267-5.257 3.129.032 2.527 2.231 5.005 3.72 6.852 3.609 4.477 10.01 12.418 15.571 14.383 3.299 1.165 6.717-.533 9.961-1.058 3.925-.635 8.036-.538 12-.977 16.526-1.83 33.458.278 48-10.137 23.442-16.788 23.205-43.359 22.861-69.211-.191-14.35-.379-28.696-.732-43-.376-15.23 2.135-30.875-1.505-46C105.871 21.407 92.788 6.978 78 1.692 73.257-.003 69.063-1.946 64-1m449-1c-7.259 13.176-6.774 28.801-10.781 43-5.918 20.972-11.31 41.883-16.888 62.996-2.163 8.188-5.879 16.522-6.987 25.004-.499 3.821 1.386 7.233 1.598 11 .227 4.029-.835 7.981-.927 12-.116 5.056.921 9.962.981 15 .048 4.063 1.056 10.061-.599 13.852C476.94 186.479 463.066 184 458 184c-.816 7.222 7.924 19.331 15.004 21.486 4.082 1.242 8.782.302 12.996.799 4.814.568 12.602 2.28 15.821-2.679 3.206-4.939.817-16.933.345-22.606-1.272-15.273-.822-31.688-.127-47 .304-6.69 3.55-12.505 4.635-19 5.262-31.496 15.635-61.93 22.855-93 1.637-7.044-3.013-11.122-7.24-16-2.894-3.338-4.96-6.68-9.289-8M270 45c-4.849 2.804-5.766 6.97-7.54 12-3.236 9.174-5.727 18.62-7.992 28-1.069 4.431-3.274 7.309-2.468 12-3.293 2.819-3.892 8.92-5.215 13-3.125 9.632-6.516 19.205-9.131 29-1.358 5.084-3.268 8.018-.654 13-4.036 2.264-7.282 7.755-1.852 10.972 4.092 2.424 15.699 2.131 19.048-1.406 3.379-3.567 3.895-10.006 5.228-14.566 2.958-10.112 6.611-19.752 9.101-30 .853-3.509 2.794-6.571 3.852-10 3.451-11.178 6.873-22.03 10.812-33 3.319-9.241 4.601-19.568 7.431-29 2.332-7.774 6.457-15.798 7.126-23.999.495-6.06-5.561-8.88-8.927-13.016-2.124-2.61-3.862-6.151-6.919-7.801-2.729-1.473-6.205-.967-7.386 2.16-1.342 3.551-.235 7.934-.839 11.656-1.483 9.146-9.678 22.43-3.675 31m99 47c2.196 20.718-17.817 40.132-14 61-4.392 1.466-6.581 7.024-1.772 9.972 3.582 2.196 13.979 1.97 17.558-.151 3.527-2.09 4.862-7.144 5.939-10.821 2.352-8.025 4.436-16.136 7.236-24 5.121-14.377 8.584-29.409 13.398-44 1.266-3.837 3.496-7.219 4.827-11 1.353-3.844 1.162-8.089 2.409-12 4.069-12.761 8.788-25.71 11.025-39 1.133-6.726-4.558-9.47-8.357-14.003-1.707-2.037-2.872-4.597-4.816-6.424-2.179-2.049-5.592-3.103-8.114-.965-2.988 2.533-1.306 7.051-1.388 10.392-.11 4.478-1.9 8.691-2.945 13-1.503 6.197-2.063 12.995-3.904 19-2.583 8.423-6.331 16.467-8.683 25-1.986 7.203-3.422 18.448-8.413 24M149 205c6.679.527 13.319.646 20 1.09 3.137.208 6.825 1.459 9.142-1.412 4.008-4.966 1.827-15.884 1.143-21.678-1.387-11.764.963-24.057-.116-36-1.368-15.144.391-30.786.39-46 0-14.636-.904-29.283-.544-44 .195-8.001-.327-15.984.024-24 .187-4.254 1.754-8.803.397-13C176.848 11.997 167.722 6.771 163 0c-2.144.154-5.509-.312-6.987 1.614-2.399 3.128-.343 8.87-.103 12.386.634 9.256.09 18.723.09 28 0 17.732.979 35.342 1.085 53 .053 8.924-1.961 18.101-1.696 27 .316 10.613.419 21.473.987 32 .391 7.249 2.705 16.861.746 23.981-1.744 6.336-11.022 5.7-16.122 5.294-2.087-.167-5.525-.61-6.914 1.467-1.414 2.115.718 4.661 1.973 6.244 3.949 4.981 9.951 8.413 12.941 14.014M445.643 1.043c-4.114 3.283 1.914 13.344 2.862 16.957.688 2.625.264 5.388 1.004 8 .899 3.169 2.989 5.861 4.023 9 1.695 5.152 2.363 10.734 3.703 16 1.409 5.538 3.615 10.184 3.765 16 .065 2.52 1.439 14.613 6.48 11.824 4.074-2.254 5.049-13.705 5.574-17.824.518-4.067 2.692-7.907 2.748-12 .052-3.762-1.702-7.394-2.567-11-1.911-7.965-2.501-17.245-7.848-23.83-3.457-4.258-8.585-9.831-13.402-12.516-1.751-.977-4.52-2.065-6.342-.611M236 18.514c-6.349.398-12.64.332-19 .501-2.327.061-5.597.006-7.353 1.843-3.101 3.246 2.312 8.012 4.368 10.142 7.136 7.392 12.23 11.913 22.966 10.941 6.288-.569 7.603-8.823 9.118-13.941.652-2.204 1.448-5.372-.128-7.397-1.885-2.425-7.239-2.261-9.971-2.089M25.228 20.042C21.222 22.395 22.353 27.229 22.7 31c.822 8.947-1.455 18.014-.276 27 1.447 11.02-.406 22.852-.424 34-.014 9.008-.661 18.037-.66 27 0 4.679 1.251 9.341 1.57 14 .351 5.112-.53 9.942-.817 15-.205 3.624-.206 10.487 1.934 13.566 2.849 4.101 14.971 3.283 18.84 1.116 5.315-2.977 4.262-10.616 3.723-15.682-.406-3.819.9-7.255.735-11-.31-7.029-1.251-13.855-.811-21 .879-14.274-.09-29.605-.549-44-.233-7.288-1.503-16.897.353-23.981 2.587-9.874 17.245 1.045 17.58-10.024C64.347 22.158 46.413 18.683 35 19.134c-2.92.116-7.172-.619-9.772.908m304.831-.469c-6.668 2.11-.898 8.453 1.966 11.337 6.614 6.662 15.409 14.905 25.842 10.487 4.497-1.905 10.726-18.069 5.814-21.369-2.339-1.572-6.018-1.027-8.681-1.028-7.587-.003-17.665-1.73-24.941.573ZM277.279 164.801c-2.376.993-2.271 4.065-2.26 6.203.026 4.862 1.689 9.973-4.038 12.254-3.734 1.487-8.089.163-11.981.407-11.783.74-24.209 1.053-36 .245-3.942-.269-14.428-3.198-16.825 1.604-1.132 2.267 1.191 4.831 2.456 6.486 3.289 4.303 7.848 12.285 13.384 13.681 4.752 1.199 10.123-.83 14.985-.641 13.354.52 26.58 1.156 40 .817 5.24-.132 15.326.796 19.852-1.885 4.096-2.426 2.683-7.122 2.318-10.972-.38-4.003.331-8.26-1.627-11.957-2.058-3.887-6.424-6.133-9.542-9.086-2.391-2.265-6.714-8.832-10.722-7.156M323 189c5.545 4.191 9.872 13.665 16.104 16.258 4.892 2.036 10.812-.377 15.896-.215 14.697.469 29.236 1.265 44 .591 4.297-.196 15.199.977 17.821-2.952 1.601-2.4 1.175-5.949 1.179-8.682.014-10.801-3.464-14.675-11-22.015-2.526-2.459-6.694-8.283-10.852-7.233-3.662.924-2.906 5.514-2.572 8.248.683 5.578-.21 9.993-6.577 10.807-3.001.384-5.994-.321-8.999-.213-12.421.449-25.621 1.581-38 .121-6.335-.748-15.269-2.721-17 5.285Z"/></g></svg>
